<svg width="173" height="154" viewBox="0 0 173 154" fill="none" xmlns="http://www.w3.org/2000/svg">
<path fill-rule="evenodd" clip-rule="evenodd" d="M108.942 45.9284C107.189 44.0964 104.436 44.0964 102.683 45.9284L69.5959 80.5196C68.385 81.7855 66.5233 82.1883 64.8953 81.5367C63.2673 80.8851 62.2014 79.3103 62.204 77.5609L62.2252 63.4527C62.231 59.6045 59.1176 57.0432 56.0083 57.4094C53.5723 57.6963 51.4074 59.7225 51.009 62.6074L46.7962 93.1091C45.8152 100.212 45.4299 103.157 45.6239 105.932C45.9309 110.327 47.2773 114.556 49.5276 118.239C50.9435 120.557 52.9121 122.648 57.7622 127.719C62.3013 132.464 65.5677 135.876 68.3142 138.402C71.0373 140.907 73.0274 142.328 74.9347 143.213C81.3707 146.2 88.7153 146.191 95.1695 143.178C97.084 142.284 99.0817 140.854 101.814 138.339C104.569 135.802 107.847 132.379 112.4 127.619L131.79 107.348C131.845 107.29 131.902 107.233 131.96 107.179L138.027 100.837C139.888 98.8908 139.888 95.6561 138.027 93.7101C136.274 91.878 133.52 91.878 131.768 93.7101L121.381 104.57C119.746 106.279 117.031 106.343 115.317 104.712C113.603 103.081 113.539 100.374 115.174 98.6649L133.872 79.1178C135.733 77.1719 135.733 73.9371 133.872 71.9912C132.119 70.1591 129.366 70.1591 127.613 71.9912L108.916 91.5382C107.281 93.2474 104.566 93.3112 102.852 91.6807C101.139 90.0501 101.075 87.3427 102.709 85.6335L129.717 57.3989C131.578 55.4529 131.578 52.2182 129.717 50.2722C127.964 48.4401 125.211 48.4401 123.458 50.2722L96.4509 78.5068C94.816 80.2161 92.1013 80.2798 90.3875 78.6493C88.6736 77.0188 88.6097 74.3114 90.2446 72.6021L108.942 53.0551C110.803 51.1091 110.803 47.8744 108.942 45.9284ZM117.735 43.8869C117.116 42.4902 116.254 41.1798 115.148 40.0237C110.016 34.6588 101.609 34.6588 96.477 40.0237L70.7975 66.8704L70.8026 63.4655C70.8154 54.9419 63.6568 47.8948 55.0023 48.9141C48.4371 49.6873 43.408 54.9515 42.5119 61.4401L38.299 91.9418C38.2751 92.1153 38.2513 92.2871 38.2278 92.4571C37.3391 98.8882 36.804 102.76 37.0672 106.527C37.4683 112.266 39.228 117.821 42.2027 122.69C44.1579 125.89 46.8173 128.67 51.1915 133.242L51.6598 133.732C56.0729 138.345 59.527 141.957 62.499 144.69C65.5177 147.467 68.2596 149.55 71.3156 150.969C80.0585 155.027 90.0596 155.008 98.8055 150.926C101.861 149.499 104.606 147.41 107.632 144.625C110.611 141.882 114.075 138.26 118.503 133.631L133.675 117.769C133.733 117.715 133.79 117.659 133.846 117.601L144.233 106.741C149.256 101.49 149.256 93.0565 144.233 87.8054C143.032 86.5497 141.651 85.5878 140.175 84.9199C145.101 79.6622 145.068 71.3035 140.078 66.0864C138.877 64.8307 137.496 63.8689 136.02 63.201C140.946 57.9432 140.913 49.5845 135.923 44.3675C130.949 39.1678 122.899 39.0076 117.735 43.8869Z" fill="#6C74CD" fill-opacity="0.1"/>
<path fill-rule="evenodd" clip-rule="evenodd" d="M72.9005 9.92591C71.1082 8.05227 68.3035 8.05228 66.5112 9.9259L32.9724 44.9864C31.7605 46.2534 29.8908 46.6601 28.2542 46.0129C26.6177 45.3656 25.5452 43.7953 25.5479 42.05L25.5693 27.7504C25.5753 23.7765 22.3679 21.1796 19.2203 21.5502C16.7474 21.8415 14.521 23.9053 14.1102 26.8793L9.83993 57.7948C8.84616 64.9894 8.45342 67.9875 8.6509 70.8136C8.9633 75.2843 10.3332 79.5851 12.6212 83.33C14.0616 85.6878 16.0635 87.8135 20.9774 92.9503C21.9395 93.9561 22.8475 94.9053 23.7102 95.8037C25.3474 97.5088 25.279 100.205 23.5574 101.827C21.8358 103.448 19.113 103.381 17.4757 101.676C16.6064 100.77 15.6926 99.815 14.7317 98.8105C14.6091 98.6823 14.4878 98.5555 14.3677 98.43C9.92872 93.7904 7.23783 90.978 5.26024 87.7411C2.2519 82.817 0.473256 77.2023 0.0679382 71.4019C-0.198127 67.5943 0.342801 63.6804 1.24503 57.1523C1.26839 56.9833 1.29199 56.8125 1.31582 56.64L5.5861 25.7245C6.4876 19.1978 11.5533 13.8725 18.2044 13.0892C26.981 12.0555 34.1857 19.1973 34.1728 27.7631L34.1674 31.348L60.2656 4.06578C65.4513 -1.35526 73.9604 -1.35526 79.1461 4.06578C80.2757 5.24661 81.1532 6.58668 81.7785 8.01492C86.9954 3.05193 95.1674 3.20313 100.204 8.4685C105.265 13.759 105.265 22.2463 100.204 27.5368C98.5704 29.2449 95.8476 29.3177 94.1229 27.6995C92.3982 26.0813 92.3247 23.3848 93.9586 21.6767C95.8758 19.6725 95.8758 16.3327 93.9586 14.3286C92.1663 12.455 89.3617 12.455 87.5694 14.3286L79.1503 23.1297C79.1489 23.1312 79.1475 23.1326 79.1461 23.1341L66.2136 36.6534C64.5796 38.3615 61.8569 38.4343 60.1322 36.8161C58.4075 35.1979 58.334 32.5014 59.9679 30.7933L72.9005 17.2739C74.8176 15.2698 74.8176 11.93 72.9005 9.92591Z" fill="#6C74CD" fill-opacity="0.1"/>
<circle cx="162" cy="52" r="5.5" stroke="#6C74CD" stroke-opacity="0.1" stroke-width="5"/>
<path d="M169.484 80.2107C165.83 83.6235 160.198 91.0722 166.905 93.5655C173.612 96.0587 166.359 104.018 161.895 107.686" stroke="#6C74CD" stroke-opacity="0.1" stroke-width="6" stroke-linecap="round" stroke-linejoin="round"/>
</svg>
