<svg width="36" height="36" viewBox="0 0 36 36" fill="none" xmlns="http://www.w3.org/2000/svg">
<path fill-rule="evenodd" clip-rule="evenodd" d="M0.979492 18.0013C0.979492 27.4016 8.59998 35.0221 18.0003 35.0221C27.4007 35.0221 35.0212 27.4016 35.0212 18.0013C35.0212 8.60095 27.4007 0.980469 18.0003 0.980469C8.59998 0.980469 0.979492 8.60095 0.979492 18.0013ZM25.4036 12.0842C26.0482 12.675 26.0917 13.6766 25.5008 14.3212L16.7925 23.8212C16.5007 24.1396 16.0915 24.3249 15.6597 24.3343C15.228 24.3437 14.8111 24.1763 14.5057 23.8709L10.5474 19.9126C9.92908 19.2942 9.92908 18.2917 10.5474 17.6734C11.1657 17.0551 12.1682 17.0551 12.7866 17.6734L15.5756 20.4624L23.1665 12.1814C23.7574 11.5368 24.7589 11.4933 25.4036 12.0842Z" fill="#6C80AC"/>
</svg>
