<svg width="28" height="28" viewBox="0 0 28 28" fill="none" xmlns="http://www.w3.org/2000/svg">
<path fill-rule="evenodd" clip-rule="evenodd" d="M1.45898 13.9987C1.45898 20.9253 7.07408 26.5404 14.0007 26.5404C20.9272 26.5404 26.5423 20.9253 26.5423 13.9987C26.5423 7.07213 20.9272 1.45703 14.0007 1.45703C7.07408 1.45703 1.45898 7.07213 1.45898 13.9987ZM19.4557 9.63869C19.9306 10.0741 19.9627 10.8121 19.5273 11.2871L13.1107 18.2871C12.8956 18.5216 12.5941 18.6582 12.276 18.6651C11.9579 18.672 11.6507 18.5487 11.4257 18.3237L8.50903 15.407C8.05341 14.9514 8.05341 14.2127 8.50903 13.7571C8.96464 13.3015 9.70333 13.3015 10.1589 13.7571L12.214 15.8121L17.8073 9.71036C18.2427 9.23539 18.9807 9.2033 19.4557 9.63869Z" fill="#6C74CD"/>
</svg>
