<svg width="30" height="30" viewBox="0 0 30 30" fill="none" xmlns="http://www.w3.org/2000/svg">
<path fill-rule="evenodd" clip-rule="evenodd" d="M15 1.5625C7.57867 1.5625 1.5625 7.57867 1.5625 15C1.5625 22.4213 7.57867 28.4375 15 28.4375C22.4213 28.4375 28.4375 22.4213 28.4375 15C28.4375 7.57867 22.4213 1.5625 15 1.5625ZM14.1094 9.22967C13.684 8.68601 12.8983 8.5902 12.3547 9.01567C11.811 9.44115 11.7152 10.2268 12.1407 10.7704L15.4508 15.0001L12.1407 19.2297C11.7152 19.7733 11.811 20.559 12.3547 20.9844C12.8983 21.4099 13.684 21.3141 14.1094 20.7704L17.729 16.1454C18.2571 15.4707 18.2571 14.5294 17.729 13.8547L14.1094 9.22967Z" fill="#BDBDBD"/>
</svg>
