<svg width="30" height="30" viewBox="0 0 30 30" fill="none" xmlns="http://www.w3.org/2000/svg">
<path fill-rule="evenodd" clip-rule="evenodd" d="M15.9346 27.1875C15.9346 26.4971 16.4942 25.9375 17.1846 25.9375L27.1846 25.9375C27.8749 25.9375 28.4346 26.4971 28.4346 27.1875C28.4346 27.8779 27.8749 28.4375 27.1846 28.4375L17.1846 28.4375C16.4942 28.4375 15.9346 27.8779 15.9346 27.1875Z" fill="#BDBDBD"/>
<path d="M23.8156 2.17075C22.3096 1.33465 20.4834 1.36225 19.0027 2.24289C18.5326 2.52248 18.0985 2.93905 17.5521 3.51883C17.3197 3.76539 17.2035 3.88868 17.2057 4.04075C17.208 4.19283 17.329 4.31387 17.5711 4.55595L25.5602 12.545C25.8074 12.7922 25.931 12.9158 26.0859 12.9162C26.2407 12.9165 26.3633 12.795 26.6084 12.552C27.1344 12.0305 27.5156 11.6078 27.775 11.1526C28.6296 9.6532 28.6559 7.80971 27.8452 6.28583C27.5073 5.65064 26.9381 5.06961 26.0877 4.20145L25.8576 3.96634C25.0101 3.10006 24.4403 2.51757 23.8156 2.17075Z" fill="#BDBDBD"/>
<path d="M23.7293 15.3303C23.9884 15.0808 24.1179 14.956 24.1194 14.7986C24.1209 14.6412 23.9937 14.5141 23.7394 14.2598L15.9168 6.43715C15.6575 6.17785 15.5278 6.0482 15.3681 6.0514C15.2084 6.05459 15.084 6.18933 14.8353 6.4588L5.1779 16.9221C3.77782 18.4386 2.91971 19.368 2.4174 20.5242C1.91605 21.6781 1.81732 22.9478 1.65589 25.0237L1.65561 25.0274C1.65532 25.0311 1.54875 26.3944 1.5652 26.6896C1.58383 27.0239 1.66345 27.4303 1.97371 27.7824C2.28677 28.1376 2.68248 28.2654 3.01564 28.321C3.30544 28.3693 4.61067 28.4033 4.6133 28.4034C6.98473 28.4659 8.45068 28.5045 9.79877 27.9779C11.1449 27.4521 12.2088 26.4271 13.9349 24.764L23.7293 15.3303Z" fill="#BDBDBD"/>
</svg>
