<svg width="28" height="28" viewBox="0 0 28 28" fill="none" xmlns="http://www.w3.org/2000/svg">
<path d="M10.6679 12.4728L10.9093 12.2314C13.2179 9.92287 16.9607 9.92287 19.2693 12.2314C21.5778 14.5399 21.5778 18.2828 19.2693 20.5913L15.9253 23.9353C13.6168 26.2438 9.8739 26.2438 7.56538 23.9353C5.25685 21.6267 5.25685 17.8839 7.56538 15.5754L8.10712 15.0336" stroke="#999999" stroke-width="2" stroke-linecap="round"/>
<path opacity="0.4" d="M19.8935 12.9651L20.4353 12.4233C22.7438 10.1148 22.7438 6.37195 20.4353 4.06343C18.1267 1.7549 14.3839 1.7549 12.0754 4.06343L8.73139 7.40739C6.42287 9.71592 6.42287 13.4588 8.73139 15.7673C11.0399 18.0758 14.7828 18.0758 17.0913 15.7673L17.3327 15.5259" stroke="#999999" stroke-width="2" stroke-linecap="round"/>
</svg>
