<svg width="20" height="20" viewBox="0 0 20 20" fill="none" xmlns="http://www.w3.org/2000/svg">
<path d="M11.8092 17.4075C15.295 17.1758 18.0717 14.3597 18.3001 10.8244C18.3448 10.1326 18.3448 9.41614 18.3001 8.7243C18.0717 5.18901 15.295 2.37298 11.8092 2.14126C10.6199 2.06221 9.3783 2.06237 8.19149 2.14126C4.70565 2.37298 1.929 5.18901 1.70053 8.7243C1.65581 9.41614 1.65581 10.1326 1.70053 10.8244C1.78374 12.112 2.35319 13.3042 3.02358 14.3109C3.41283 15.0156 3.15595 15.8952 2.7505 16.6635C2.45817 17.2175 2.312 17.4945 2.42936 17.6946C2.54672 17.8947 2.80887 17.9011 3.33318 17.9139C4.37005 17.9391 5.06923 17.6452 5.62422 17.2359C5.939 17.0038 6.09638 16.8877 6.20486 16.8744C6.31333 16.861 6.5268 16.949 6.95366 17.1248C7.33733 17.2828 7.7828 17.3803 8.19149 17.4075C9.3783 17.4864 10.6199 17.4865 11.8092 17.4075Z" stroke="#BDBDBD" stroke-width="1.2" stroke-linejoin="round"/>
<path d="M8.75 7.94611C8.75 7.23806 9.30964 6.66406 10 6.66406C10.6904 6.66406 11.25 7.23806 11.25 7.94611C11.25 8.20134 11.1773 8.43914 11.0519 8.63893C10.6784 9.23437 10 9.80216 10 10.5102V10.8307" stroke="#BDBDBD" stroke-width="1.2" stroke-linecap="round"/>
<path d="M10 12.5H10.0075" stroke="#BDBDBD" stroke-width="1.2" stroke-linecap="round" stroke-linejoin="round"/>
</svg>
