<svg width="30" height="30" viewBox="0 0 30 30" fill="none" xmlns="http://www.w3.org/2000/svg">
<path d="M26.25 15C26.25 13.9645 25.4105 13.125 24.375 13.125C23.3395 13.125 22.5 13.9645 22.5 15C22.5 16.0355 23.3395 16.875 24.375 16.875C25.4105 16.875 26.25 16.0355 26.25 15Z" stroke="#BDBDBD" stroke-width="2"/>
<path d="M16.875 15C16.875 13.9645 16.0355 13.125 15 13.125C13.9645 13.125 13.125 13.9645 13.125 15C13.125 16.0355 13.9645 16.875 15 16.875C16.0355 16.875 16.875 16.0355 16.875 15Z" stroke="#BDBDBD" stroke-width="2"/>
<path d="M7.5 15C7.5 13.9645 6.66053 13.125 5.625 13.125C4.58947 13.125 3.75 13.9645 3.75 15C3.75 16.0355 4.58947 16.875 5.625 16.875C6.66053 16.875 7.5 16.0355 7.5 15Z" stroke="#BDBDBD" stroke-width="2"/>
</svg>
