<svg width="28" height="28" viewBox="0 0 28 28" fill="none" xmlns="http://www.w3.org/2000/svg">
<path fill-rule="evenodd" clip-rule="evenodd" d="M2.3335 3.4987C2.3335 2.85437 2.85583 2.33203 3.50016 2.33203H24.5002C25.1445 2.33203 25.6668 2.85437 25.6668 3.4987C25.6668 4.14303 25.1445 4.66536 24.5002 4.66536H3.50016C2.85583 4.66536 2.3335 4.14303 2.3335 3.4987Z" fill="#999999"/>
<path fill-rule="evenodd" clip-rule="evenodd" d="M8.16699 10.4987C8.16699 9.85437 8.68933 9.33203 9.33366 9.33203H18.667C19.3113 9.33203 19.8337 9.85437 19.8337 10.4987C19.8337 11.143 19.3113 11.6654 18.667 11.6654H9.33366C8.68933 11.6654 8.16699 11.143 8.16699 10.4987Z" fill="#999999"/>
<path fill-rule="evenodd" clip-rule="evenodd" d="M2.3335 17.4987C2.3335 16.8544 2.85583 16.332 3.50016 16.332H24.5002C25.1445 16.332 25.6668 16.8544 25.6668 17.4987C25.6668 18.143 25.1445 18.6654 24.5002 18.6654H3.50016C2.85583 18.6654 2.3335 18.143 2.3335 17.4987Z" fill="#999999"/>
<path fill-rule="evenodd" clip-rule="evenodd" d="M8.16699 24.4987C8.16699 23.8544 8.68933 23.332 9.33366 23.332H18.667C19.3113 23.332 19.8337 23.8544 19.8337 24.4987C19.8337 25.143 19.3113 25.6654 18.667 25.6654H9.33366C8.68933 25.6654 8.16699 25.143 8.16699 24.4987Z" fill="#999999"/>
</svg>
